# xmcd
#
# Track frame offsets:
#	150
#	51309
#	86121
#	145904
#	223494
#	237197
#
# Disc length: 3478 seconds
#
# Revision: 0
# Processed by: cddbd v1.4PL0 Copyright (c) Steve Scherf et al.
# Submitted via: EasyCDDAExtractor 4.6.9.1
#
DISCID=5c0d9406
DTITLE=String Cheese Incident - 02-09-21 Disc 2
DYEAR=2002
DGENRE=Bluegrass
TTITLE0=It Is What It Is
TTITLE1=Mauna Bowa
TTITLE2=Emma's Dream
TTITLE3=Miss Brown's Teahouse
TTITLE4=Parker's Blues
TTITLE5=Daryl
EXTD=University of Utah Union Plaza\nTaped by\nJoe Billerback of Phoenix\njbil
EXTD=lerb@cox.net\nNeumann KM-184's>Shure FP-24>Tascam DAP1\nTagged by MaLaCoi
EXTD=D\n
EXTT0=
EXTT1=
EXTT2=
EXTT3=
EXTT4=
EXTT5=
PLAYORDER=
